<svg enable-background="new 0 0 512 512" height="512" viewBox="0 0 512 512" width="512" xmlns="http://www.w3.org/2000/svg"><g fill="#fff"><path d="m382.56 233.376c-2.592-5.728-8.288-9.376-14.56-9.376h-64v-208c0-8.832-7.168-16-16-16h-64c-8.832 0-16 7.168-16 16v208h-64c-6.272 0-11.968 3.68-14.56 9.376-2.624 5.728-1.6 12.416 2.528 17.152l112 128c3.04 3.488 7.424 5.472 12.032 5.472s8.992-2.016 12.032-5.472l112-128c4.16-4.704 5.12-11.424 2.528-17.152z"/><path d="m432 352v96h-352v-96h-64v128c0 17.696 14.336 32 32 32h416c17.696 0 32-14.304 32-32v-128z"/></g></svg>