<svg enable-background="new 0 0 305.836 305.836" height="512" viewBox="0 0 305.836 305.836" width="512" xmlns="http://www.w3.org/2000/svg"><path d="m152.924 300.748c84.319 0 152.912-68.6 152.912-152.918 0-39.476-15.312-77.231-42.346-105.564 0 0 3.938-8.857 8.814-19.783 4.864-10.926-2.138-18.636-15.648-17.228l-79.125 8.289c-13.511 1.411-17.999 11.467-10.021 22.461l46.741 64.393c7.986 10.992 17.834 12.31 22.008 2.937l7.56-16.964c12.172 18.012 18.976 39.329 18.976 61.459 0 60.594-49.288 109.875-109.87 109.875-60.591 0-109.882-49.287-109.882-109.875 0-19.086 4.96-37.878 14.357-54.337 5.891-10.325 2.3-23.467-8.025-29.357-10.328-5.896-23.464-2.3-29.36 8.031-13.092 22.94-20.015 49.103-20.015 75.662 0 84.319 68.602 152.919 152.924 152.919z" fill="#fff"/></svg>